<svg xmlns="http://www.w3.org/2000/svg" viewBox="0 0 24 24" width="24" height="24" fill="white">
  <path d="M22.46 6c-.77.35-1.6.58-2.46.69a4.27 4.27 0 0 0 1.88-2.36
           8.59 8.59 0 0 1-2.71 1.03A4.26 4.26 0 0 0 16.1 4
           c-2.36 0-4.27 1.91-4.27 4.27 0 .34.04.67.11.99
           -3.55-.18-6.7-1.88-8.8-4.47a4.27 4.27 0 0 0-.58 2.15
           c0 1.48.75 2.78 1.9 3.54a4.25 4.25 0 0 1-1.93-.53v.05
           c0 2.07 1.47 3.8 3.42 4.19a4.3 4.3 0 0 1-1.92.07
           c.54 1.68 2.1 2.91 3.95 2.95A8.55 8.55 0 0 1 2 19.54
           a12.07 12.07 0 0 0 6.53 1.92c7.84 0 12.13-6.49
           12.13-12.13 0-.18 0-.36-.01-.54A8.63 8.63 0 0 0 22.46 6z"></path>
</svg>
