<svg xmlns="http://www.w3.org/2000/svg" viewBox="0 0 24 24" width="24" height="24" fill="white">
  <path d="M12 2C6.48 2 2 6.48 2 12s4.48 10 10 10 
           10-4.48 10-10S17.52 2 12 2zm6.93 9h-3.02
           c-.15-2.21-.74-4.3-1.7-6.07A8.03 8.03 0 0 1 18.93 11zM12 4.07
           c1.09 1.63 1.82 3.73 1.98 5.93H10.02
           c.16-2.2.89-4.3 1.98-5.93zM5.07 13h3.02
           c.15 2.21.74 4.3 1.7 6.07A8.03 8.03 0 0 1 5.07 13zM8.09 11H5.07
           a8.03 8.03 0 0 1 4.72-6.07c-.96 1.77-1.55 3.86-1.7 6.07zM12 19.93
           c-1.09-1.63-1.82-3.73-1.98-5.93h3.96
           c-.16 2.2-.89 4.3-1.98 5.93zM15.91 13h3.02
           a8.03 8.03 0 0 1-4.72 6.07c.96-1.77 1.55-3.86 1.7-6.07z"></path>
</svg>
